<svg width="41" height="41" viewBox="0 0 41 41" fill="none" xmlns="http://www.w3.org/2000/svg">
<circle cx="19.8166" cy="20.7834" r="14.9833" fill="white"/>
<path d="M27.3881 3.3833H13.2119C7.05425 3.3833 3.38333 7.05422 3.38333 13.2119V27.3711C3.38333 33.5457 7.05425 37.2166 13.2119 37.2166H27.3712C33.5288 37.2166 37.1997 33.5457 37.1997 27.3881V13.2119C37.2167 7.05422 33.5458 3.3833 27.3881 3.3833ZM31.3466 21.1966L24.0893 28.4538C23.8356 28.7076 23.5142 28.826 23.1927 28.826C22.8713 28.826 22.5499 28.7076 22.2962 28.4538C21.8056 27.9632 21.8056 27.1512 22.2962 26.6606L27.3881 21.5687H10.15C9.45641 21.5687 8.88125 20.9936 8.88125 20.3C8.88125 19.6064 9.45641 19.0312 10.15 19.0312H27.3881L22.2962 13.9393C21.8056 13.4487 21.8056 12.6367 22.2962 12.1461C22.7867 11.6556 23.5987 11.6556 24.0893 12.1461L31.3466 19.4034C31.5834 19.6402 31.7187 19.9616 31.7187 20.3C31.7187 20.6383 31.5834 20.9597 31.3466 21.1966Z" fill="#6C4AED"/>
</svg>
