<svg width="22" height="22" viewBox="0 0 22 22" fill="none" xmlns="http://www.w3.org/2000/svg">
<path d="M13.2917 8.479H1.83333C1.45749 8.479 1.14583 8.16734 1.14583 7.7915C1.14583 7.41567 1.45749 7.104 1.83333 7.104H13.2917C13.6675 7.104 13.9792 7.41567 13.9792 7.7915C13.9792 8.16734 13.6675 8.479 13.2917 8.479Z" fill="#292D32"/>
<path d="M7.33333 15.8125H5.5C5.12417 15.8125 4.8125 15.5008 4.8125 15.125C4.8125 14.7492 5.12417 14.4375 5.5 14.4375H7.33333C7.70917 14.4375 8.02083 14.7492 8.02083 15.125C8.02083 15.5008 7.70917 15.8125 7.33333 15.8125Z" fill="#292D32"/>
<path d="M13.2917 15.8125H9.625C9.24917 15.8125 8.9375 15.5008 8.9375 15.125C8.9375 14.7492 9.24917 14.4375 9.625 14.4375H13.2917C13.6675 14.4375 13.9792 14.7492 13.9792 15.125C13.9792 15.5008 13.6675 15.8125 13.2917 15.8125Z" fill="#292D32"/>
<path d="M16.0967 19.4793H5.90333C2.25499 19.4793 1.14583 18.3793 1.14583 14.7677V7.23266C1.14583 3.621 2.25499 2.521 5.90333 2.521H13.2917C13.6675 2.521 13.9792 2.83266 13.9792 3.2085C13.9792 3.58433 13.6675 3.896 13.2917 3.896H5.90333C3.02499 3.896 2.52083 4.391 2.52083 7.23266V14.7585C2.52083 17.6002 3.02499 18.0952 5.90333 18.0952H16.0875C18.9658 18.0952 19.47 17.6002 19.47 14.7585V12.8518C19.47 12.476 19.7817 12.1643 20.1575 12.1643C20.5333 12.1643 20.845 12.476 20.845 12.8518V14.7585C20.8542 18.3793 19.745 19.4793 16.0967 19.4793Z" fill="#292D32"/>
<path d="M18.3333 9.39594C17.9575 9.39594 17.6458 9.08427 17.6458 8.70844V3.20844C17.6458 2.93344 17.8108 2.67677 18.0675 2.57594C18.3242 2.47511 18.6175 2.53011 18.8192 2.72261L20.6525 4.55594C20.9183 4.82177 20.9183 5.26177 20.6525 5.52761C20.3867 5.79344 19.9467 5.79344 19.6808 5.52761L19.0208 4.86761V8.70844C19.0208 9.08427 18.7092 9.39594 18.3333 9.39594Z" fill="#292D32"/>
<path d="M16.5 5.72899C16.3258 5.72899 16.1517 5.66482 16.0142 5.52732C15.7483 5.26149 15.7483 4.82149 16.0142 4.55566L17.8475 2.72232C18.1133 2.45649 18.5533 2.45649 18.8192 2.72232C19.085 2.98816 19.085 3.42816 18.8192 3.69399L16.9858 5.52732C16.8483 5.66482 16.6742 5.72899 16.5 5.72899Z" fill="#292D32"/>
</svg>
