<svg width="23" height="23" viewBox="0 0 23 23" fill="none" xmlns="http://www.w3.org/2000/svg">
<path d="M6.93833 1.91669H5.1175C3.01875 1.91669 1.91666 3.01877 1.91666 5.10794V6.92877C1.91666 9.01794 3.01875 10.12 5.10791 10.12H6.92875C9.01791 10.12 10.12 9.01794 10.12 6.92877V5.10794C10.1296 3.01877 9.0275 1.91669 6.93833 1.91669Z" fill="#BDBDC4"/>
<path d="M17.8921 1.91669H16.0713C13.9821 1.91669 12.88 3.01877 12.88 5.10794V6.92877C12.88 9.01794 13.9821 10.12 16.0713 10.12H17.8921C19.9813 10.12 21.0833 9.01794 21.0833 6.92877V5.10794C21.0833 3.01877 19.9813 1.91669 17.8921 1.91669Z" fill="#BDBDC4"/>
<path d="M17.8921 12.8704H16.0713C13.9821 12.8704 12.88 13.9725 12.88 16.0617V17.8825C12.88 19.9717 13.9821 21.0738 16.0713 21.0738H17.8921C19.9813 21.0738 21.0833 19.9717 21.0833 17.8825V16.0617C21.0833 13.9725 19.9813 12.8704 17.8921 12.8704Z" fill="#BDBDC4"/>
<path d="M6.93833 12.8704H5.1175C3.01875 12.8704 1.91666 13.9725 1.91666 16.0617V17.8825C1.91666 19.9813 3.01875 21.0833 5.10791 21.0833H6.92875C9.01791 21.0833 10.12 19.9813 10.12 17.8921V16.0713C10.1296 13.9725 9.0275 12.8704 6.93833 12.8704Z" fill="#BDBDC4"/>
</svg>
