<svg width="59" height="59" viewBox="0 0 59 59" fill="none" xmlns="http://www.w3.org/2000/svg">
<path d="M22.5429 38.3008C22.0758 38.3008 21.6088 38.1288 21.24 37.76C20.5271 37.0471 20.5271 35.8671 21.24 35.1542L35.1542 21.24C35.8671 20.5271 37.0471 20.5271 37.76 21.24C38.4729 21.9529 38.4729 23.1329 37.76 23.8458L23.8458 37.76C23.5017 38.1288 23.01 38.3008 22.5429 38.3008Z" fill="#292D32"/>
<path d="M36.4571 38.3008C35.99 38.3008 35.5229 38.1288 35.1542 37.76L21.24 23.8458C20.5271 23.1329 20.5271 21.9529 21.24 21.24C21.9529 20.5271 23.1329 20.5271 23.8458 21.24L37.76 35.1542C38.4729 35.8671 38.4729 37.0471 37.76 37.76C37.3913 38.1288 36.9242 38.3008 36.4571 38.3008Z" fill="#292D32"/>
<path d="M36.875 55.9272H22.125C8.77625 55.9272 3.07292 50.2238 3.07292 36.8751V22.1251C3.07292 8.77633 8.77625 3.073 22.125 3.073H36.875C50.2238 3.073 55.9271 8.77633 55.9271 22.1251V36.8751C55.9271 50.2238 50.2238 55.9272 36.875 55.9272ZM22.125 6.7605C10.7921 6.7605 6.76042 10.7922 6.76042 22.1251V36.8751C6.76042 48.208 10.7921 52.2397 22.125 52.2397H36.875C48.2079 52.2397 52.2396 48.208 52.2396 36.8751V22.1251C52.2396 10.7922 48.2079 6.7605 36.875 6.7605H22.125Z" fill="#292D32"/>
</svg>
