<svg width="27" height="27" viewBox="0 0 27 27" fill="none" xmlns="http://www.w3.org/2000/svg">
<path d="M13.5 0C20.9565 0 27 6.04469 27 13.5C27 20.9565 20.9565 27 13.5 27C6.04469 27 0 20.9559 0 13.5C0 6.04469 6.04469 0 13.5 0Z" fill="#F5AC37"/>
<path d="M13.998 14.4533H19.1278C19.2372 14.4533 19.2888 14.4533 19.2967 14.3099C19.3386 13.7881 19.3386 13.2632 19.2967 12.7407C19.2967 12.6393 19.2463 12.5974 19.1363 12.5974H8.92717C8.80081 12.5974 8.76679 12.6393 8.76679 12.7577V14.2595C8.76679 14.4533 8.76679 14.4533 8.96909 14.4533H13.998ZM18.7238 10.8423C18.7384 10.804 18.7384 10.7621 18.7238 10.7244C18.6382 10.5379 18.5367 10.3599 18.4188 10.1928C18.2414 9.90732 18.0325 9.64427 17.7943 9.40795C17.6819 9.26519 17.5519 9.137 17.4061 9.02826C16.6759 8.40678 15.8078 7.96695 14.8747 7.74581C14.4038 7.64011 13.9227 7.58968 13.4403 7.59394H8.90955C8.78319 7.59394 8.76618 7.64436 8.76618 7.75432V10.7493C8.76618 10.8757 8.76618 10.9097 8.92656 10.9097H18.6631C18.6631 10.9097 18.7475 10.8927 18.7645 10.8423H18.7232H18.7238ZM18.7238 16.2084C18.5804 16.1926 18.4359 16.1926 18.2925 16.2084H8.93567C8.80931 16.2084 8.76679 16.2084 8.76679 16.3773V19.3054C8.76679 19.4403 8.76679 19.4743 8.93567 19.4743H13.2556C13.4622 19.4901 13.6688 19.4755 13.8711 19.4324C14.498 19.3875 15.1146 19.2514 15.7027 19.0272C15.9165 18.9531 16.1231 18.8565 16.3181 18.7405H16.377C17.3897 18.2138 18.2123 17.3863 18.7311 16.3706C18.7311 16.3706 18.79 16.243 18.7238 16.2096V16.2084ZM7.07124 20.9925V20.9421V18.9762V18.3097V16.3268C7.07124 16.2169 7.07124 16.2005 6.93637 16.2005H5.10535C5.00389 16.2005 4.96198 16.2005 4.96198 16.0656V14.4624H6.91936C7.02871 14.4624 7.07124 14.4624 7.07124 14.319V12.7328C7.07124 12.6314 7.07124 12.6065 6.93637 12.6065H5.10535C5.00389 12.6065 4.96198 12.6065 4.96198 12.4716V10.9869C4.96198 10.8939 4.96198 10.869 5.09684 10.869H6.91085C7.03722 10.869 7.07124 10.869 7.07124 10.7086V6.16083C7.07124 6.02596 7.07124 5.99194 7.24012 5.99194H13.5679C14.0272 6.01017 14.4834 6.06059 14.9348 6.14382C15.8649 6.31574 16.7585 6.64805 17.5756 7.12251C18.1175 7.44145 18.6163 7.82661 19.0604 8.27009C19.3945 8.61698 19.6958 8.99242 19.9631 9.39216C20.2286 9.79736 20.4491 10.2305 20.6223 10.6831C20.6435 10.801 20.7565 10.8805 20.8744 10.8605H22.3846C22.5784 10.8605 22.5784 10.8605 22.5869 11.0464V12.4303C22.5869 12.5652 22.5365 12.5992 22.401 12.5992H21.2365C21.1186 12.5992 21.0846 12.5992 21.0931 12.7511C21.1393 13.265 21.1393 13.7808 21.0931 14.2947C21.0931 14.4381 21.0931 14.4551 21.2541 14.4551H22.5863C22.6453 14.531 22.5863 14.607 22.5863 14.6835C22.5948 14.7813 22.5948 14.8804 22.5863 14.9782V15.9994C22.5863 16.1428 22.5444 16.1853 22.4174 16.1853H20.8227C20.7116 16.164 20.6034 16.2351 20.5779 16.3457C20.1982 17.3329 19.5907 18.218 18.8058 18.9276C18.5191 19.1858 18.2178 19.4288 17.9031 19.6529C17.5653 19.8473 17.2366 20.0496 16.8904 20.21C16.2531 20.4968 15.5848 20.7082 14.899 20.8424C14.2477 20.9591 13.5873 21.0119 12.9246 21.0028H7.06881V20.9943L7.07124 20.9925Z" fill="#FEFEFD"/>
</svg>
