<svg width="42" height="42" viewBox="0 0 42 42" fill="none" xmlns="http://www.w3.org/2000/svg">
<path d="M18.6808 24.0067C18.5067 24.0067 18.3325 23.9425 18.195 23.805C17.4433 23.0533 17.0308 22.0542 17.0308 21C17.0308 18.8092 18.8092 17.0308 21 17.0308C22.0542 17.0308 23.0533 17.4433 23.805 18.195C23.9333 18.3233 24.0067 18.4975 24.0067 18.6808C24.0067 18.8642 23.9333 19.0383 23.805 19.1667L19.1667 23.805C19.0292 23.9425 18.855 24.0067 18.6808 24.0067ZM21 18.4058C19.57 18.4058 18.4058 19.57 18.4058 21C18.4058 21.4583 18.525 21.8983 18.745 22.2833L22.2833 18.745C21.8983 18.525 21.4583 18.4058 21 18.4058Z" fill="#292D32"/>
<path d="M15.1333 26.9675C14.9775 26.9675 14.8125 26.9125 14.6841 26.8025C13.7033 25.9684 12.8233 24.9417 12.0716 23.75C11.1 22.2375 11.1 19.7717 12.0716 18.25C14.3083 14.7484 17.5625 12.7317 21 12.7317C23.0166 12.7317 25.0058 13.4284 26.7475 14.7392C27.05 14.9684 27.1141 15.3992 26.885 15.7017C26.6558 16.0042 26.225 16.0684 25.9225 15.8392C24.4191 14.7025 22.7141 14.1067 21 14.1067C18.0391 14.1067 15.2066 15.885 13.2266 18.9925C12.5391 20.065 12.5391 21.935 13.2266 23.0075C13.9141 24.08 14.7025 25.0059 15.5733 25.7575C15.8575 26.005 15.8941 26.4359 15.6466 26.7292C15.5183 26.885 15.3258 26.9675 15.1333 26.9675Z" fill="#292D32"/>
<path d="M21 29.2684C19.7808 29.2684 18.5891 29.0209 17.4433 28.535C17.095 28.3884 16.93 27.985 17.0766 27.6367C17.2233 27.2884 17.6266 27.1234 17.975 27.27C18.9466 27.6825 19.9641 27.8934 20.9908 27.8934C23.9516 27.8934 26.7841 26.115 28.7641 23.0075C29.4516 21.935 29.4516 20.065 28.7641 18.9925C28.48 18.5434 28.1683 18.1125 27.8383 17.7092C27.6 17.4159 27.6458 16.985 27.9391 16.7375C28.2325 16.4992 28.6633 16.5359 28.9108 16.8384C29.2683 17.2784 29.6166 17.755 29.9283 18.25C30.9 19.7625 30.9 22.2284 29.9283 23.75C27.6916 27.2517 24.4375 29.2684 21 29.2684Z" fill="#292D32"/>
<path d="M21.6325 24.9142C21.3117 24.9142 21.0183 24.685 20.9542 24.355C20.8808 23.9792 21.1283 23.6217 21.5042 23.5575C22.5125 23.3742 23.3558 22.5308 23.5392 21.5225C23.6125 21.1467 23.97 20.9083 24.3458 20.9725C24.7217 21.0458 24.9692 21.4033 24.8958 21.7792C24.6025 23.365 23.3375 24.6208 21.7608 24.9142C21.715 24.905 21.6783 24.9142 21.6325 24.9142Z" fill="#292D32"/>
<path d="M11.8333 30.8542C11.6592 30.8542 11.485 30.79 11.3475 30.6525C11.0817 30.3867 11.0817 29.9467 11.3475 29.6808L18.195 22.8333C18.4608 22.5675 18.9008 22.5675 19.1667 22.8333C19.4325 23.0992 19.4325 23.5392 19.1667 23.805L12.3192 30.6525C12.1817 30.79 12.0075 30.8542 11.8333 30.8542Z" fill="#292D32"/>
<path d="M23.3192 19.3683C23.145 19.3683 22.9708 19.3042 22.8333 19.1667C22.5675 18.9008 22.5675 18.4608 22.8333 18.195L29.6808 11.3475C29.9467 11.0817 30.3867 11.0817 30.6525 11.3475C30.9183 11.6133 30.9183 12.0533 30.6525 12.3192L23.805 19.1667C23.6675 19.3042 23.4933 19.3683 23.3192 19.3683Z" fill="#292D32"/>
</svg>
