<svg width="42" height="42" viewBox="0 0 42 42" fill="none" xmlns="http://www.w3.org/2000/svg">
<path d="M21 24.9692C18.8092 24.9692 17.0308 23.1908 17.0308 21C17.0308 18.8092 18.8092 17.0308 21 17.0308C23.1908 17.0308 24.9692 18.8092 24.9692 21C24.9692 23.1908 23.1908 24.9692 21 24.9692ZM21 18.4058C19.57 18.4058 18.4058 19.57 18.4058 21C18.4058 22.43 19.57 23.5942 21 23.5942C22.43 23.5942 23.5942 22.43 23.5942 21C23.5942 19.57 22.43 18.4058 21 18.4058Z" fill="#292D32"/>
<path d="M21 29.2684C17.5533 29.2684 14.2992 27.2517 12.0625 23.75C11.0908 22.2375 11.0908 19.7717 12.0625 18.25C14.3083 14.7484 17.5625 12.7317 21 12.7317C24.4375 12.7317 27.6917 14.7484 29.9283 18.25C30.9 19.7625 30.9 22.2284 29.9283 23.75C27.6917 27.2517 24.4375 29.2684 21 29.2684ZM21 14.1067C18.0392 14.1067 15.2067 15.885 13.2267 18.9925C12.5392 20.065 12.5392 21.935 13.2267 23.0075C15.2067 26.115 18.0392 27.8934 21 27.8934C23.9608 27.8934 26.7933 26.115 28.7733 23.0075C29.4608 21.935 29.4608 20.065 28.7733 18.9925C26.7933 15.885 23.9608 14.1067 21 14.1067Z" fill="#292D32"/>
</svg>
