<svg width="22" height="22" viewBox="0 0 22 22" fill="none" xmlns="http://www.w3.org/2000/svg">
<path d="M9.15749 20.8817C8.60749 20.8817 8.08499 20.6067 7.72749 20.1208L6.62751 18.6542C6.62751 18.6633 6.58167 18.6358 6.56333 18.6358H6.22417C3.08917 18.6358 1.14583 17.7833 1.14583 13.5575V9.89084C1.14583 6.03167 3.50167 5.02334 5.48167 4.84917C5.70167 4.82167 5.95834 4.8125 6.22417 4.8125H12.0908C15.4092 4.8125 17.1692 6.57251 17.1692 9.89084V13.5575C17.1692 13.8233 17.16 14.08 17.1233 14.3275C16.9583 16.28 15.95 18.6358 12.0908 18.6358H11.7242L10.5875 20.1208C10.23 20.6067 9.70749 20.8817 9.15749 20.8817ZM6.22417 6.1875C6.01334 6.1875 5.81167 6.19667 5.61917 6.215C3.4925 6.39833 2.52083 7.56251 2.52083 9.89084V13.5575C2.52083 16.7017 3.4925 17.2608 6.22417 17.2608H6.59083C7.00333 17.2608 7.47082 17.49 7.72749 17.82L8.8275 19.2958C9.02917 19.5708 9.28583 19.5708 9.4875 19.2958L10.5875 17.8292C10.8533 17.4717 11.275 17.2608 11.7242 17.2608H12.0908C14.4192 17.2608 15.5833 16.28 15.7575 14.19C15.785 13.97 15.7942 13.7683 15.7942 13.5575V9.89084C15.7942 7.33334 14.6483 6.1875 12.0908 6.1875H6.22417Z" fill="#292D32"/>
<path d="M9.15771 13.0077C8.64438 13.0077 8.24104 12.5952 8.24104 12.091C8.24104 11.5868 8.65354 11.1743 9.15771 11.1743C9.66188 11.1743 10.0744 11.5868 10.0744 12.091C10.0744 12.5952 9.67104 13.0077 9.15771 13.0077Z" fill="#292D32"/>
<path d="M12.0908 13.0077C11.5775 13.0077 11.1741 12.5952 11.1741 12.091C11.1741 11.5868 11.5866 11.1743 12.0908 11.1743C12.595 11.1743 13.0075 11.5868 13.0075 12.091C13.0075 12.5952 12.595 13.0077 12.0908 13.0077Z" fill="#292D32"/>
<path d="M6.23315 13.0077C5.71982 13.0077 5.31648 12.5952 5.31648 12.091C5.31648 11.5868 5.72898 11.1743 6.23315 11.1743C6.73732 11.1743 7.14982 11.5868 7.14982 12.091C7.14982 12.5952 6.73732 13.0077 6.23315 13.0077Z" fill="#292D32"/>
<path d="M16.4451 14.9327C16.2618 14.9327 16.0784 14.8593 15.9501 14.7218C15.8034 14.5752 15.7393 14.3643 15.7668 14.1627C15.7943 13.9702 15.8034 13.7685 15.8034 13.5577V9.891C15.8034 7.3335 14.6576 6.18766 12.1001 6.18766H6.23344C6.02261 6.18766 5.82096 6.19683 5.62846 6.21516C5.4268 6.24266 5.21595 6.16932 5.06928 6.03182C4.92262 5.88515 4.84011 5.68351 4.85844 5.48184C5.02344 3.50184 6.04094 1.146 9.90011 1.146H15.7668C19.0851 1.146 20.8451 2.906 20.8451 6.22434V9.891C20.8451 13.7502 18.4893 14.7585 16.5093 14.9327C16.4818 14.9327 16.4635 14.9327 16.4451 14.9327ZM6.34346 4.81266H12.091C15.4093 4.81266 17.1693 6.57267 17.1693 9.891V13.4385C18.7276 13.0535 19.461 11.9077 19.461 9.891V6.22434C19.461 3.66684 18.3151 2.521 15.7576 2.521H9.89096C7.87429 2.521 6.73763 3.25433 6.34346 4.81266Z" fill="#292D32"/>
</svg>
