<svg width="22" height="22" viewBox="0 0 22 22" fill="none" xmlns="http://www.w3.org/2000/svg">
<path d="M8.1675 18.9474C7.99333 18.9474 7.81917 18.8832 7.68167 18.7457C7.41583 18.4799 7.41583 18.0399 7.68167 17.7741L13.6583 11.7974C14.0983 11.3574 14.0983 10.6424 13.6583 10.2024L7.68167 4.22573C7.41583 3.9599 7.41583 3.5199 7.68167 3.25406C7.9475 2.98823 8.3875 2.98823 8.65333 3.25406L14.63 9.23073C15.0975 9.69823 15.3633 10.3307 15.3633 10.9999C15.3633 11.6691 15.1067 12.3016 14.63 12.7691L8.65333 18.7457C8.51583 18.8741 8.34167 18.9474 8.1675 18.9474Z" fill="#BDBDC5"/>
</svg>
