<svg width="44" height="44" viewBox="0 0 44 44" fill="none" xmlns="http://www.w3.org/2000/svg">
<circle cx="22" cy="22" r="22" fill="white"/>
<path d="M15.288 31.0938C14.678 31.0938 14.108 30.8838 13.698 30.4938C13.178 30.0038 12.928 29.2638 13.018 28.4638L13.388 25.2238C13.458 24.6138 13.828 23.8038 14.258 23.3638L22.468 14.6738C24.518 12.5038 26.658 12.4438 28.828 14.4938C30.998 16.5438 31.058 18.6838 29.008 20.8538L20.798 29.5438C20.378 29.9938 19.598 30.4138 18.988 30.5138L15.768 31.0638C15.598 31.0738 15.448 31.0938 15.288 31.0938ZM25.678 14.4838C24.908 14.4838 24.238 14.9638 23.558 15.6838L15.348 24.3838C15.148 24.5938 14.918 25.0938 14.878 25.3838L14.508 28.6238C14.468 28.9538 14.548 29.2238 14.728 29.3938C14.908 29.5638 15.178 29.6238 15.508 29.5738L18.728 29.0238C19.018 28.9738 19.498 28.7138 19.698 28.5038L27.908 19.8138C29.148 18.4938 29.598 17.2738 27.788 15.5738C26.988 14.8038 26.298 14.4838 25.678 14.4838Z" fill="#292D32"/>
<path d="M27.0881 22.5238C27.0681 22.5238 27.0381 22.5238 27.0181 22.5238C23.8981 22.2138 21.3881 19.8438 20.9081 16.7438C20.8481 16.3338 21.1281 15.9538 21.5381 15.8838C21.9481 15.8238 22.3281 16.1038 22.3981 16.5138C22.7781 18.9338 24.7381 20.7938 27.1781 21.0338C27.5881 21.0738 27.8881 21.4438 27.8481 21.8538C27.7981 22.2338 27.4681 22.5238 27.0881 22.5238Z" fill="#292D32"/>
</svg>
