<svg width="22" height="22" viewBox="0 0 22 22" fill="none" xmlns="http://www.w3.org/2000/svg">
<path d="M15.5833 19.25H6.41666C2.74999 19.25 1.83333 18.3333 1.83333 14.6667V7.33333C1.83333 3.66667 2.74999 2.75 6.41666 2.75H15.5833C19.25 2.75 20.1667 3.66667 20.1667 7.33333V14.6667C20.1667 18.3333 19.25 19.25 15.5833 19.25Z" stroke="#292D32" stroke-width="1.5" stroke-linecap="round" stroke-linejoin="round"/>
<path d="M12.8333 7.3335H17.4167" stroke="#292D32" stroke-width="1.5" stroke-linecap="round" stroke-linejoin="round"/>
<path d="M13.75 11H17.4167" stroke="#292D32" stroke-width="1.5" stroke-linecap="round" stroke-linejoin="round"/>
<path d="M15.5833 14.6665H17.4167" stroke="#292D32" stroke-width="1.5" stroke-linecap="round" stroke-linejoin="round"/>
<path d="M7.79167 10.3491C8.70801 10.3491 9.45084 9.60626 9.45084 8.68993C9.45084 7.7736 8.70801 7.03076 7.79167 7.03076C6.87534 7.03076 6.13251 7.7736 6.13251 8.68993C6.13251 9.60626 6.87534 10.3491 7.79167 10.3491Z" stroke="#292D32" stroke-width="1.5" stroke-linecap="round" stroke-linejoin="round"/>
<path d="M11 14.9691C10.8717 13.6399 9.81749 12.5949 8.48833 12.4758C8.02999 12.4299 7.56249 12.4299 7.09499 12.4758C5.76583 12.6041 4.71166 13.6399 4.58333 14.9691" stroke="#292D32" stroke-width="1.5" stroke-linecap="round" stroke-linejoin="round"/>
</svg>
