<svg width="51" height="51" viewBox="0 0 51 51" fill="none" xmlns="http://www.w3.org/2000/svg">
<circle cx="25.5" cy="25.5" r="25.5" fill="#F0914D" fill-opacity="0.25"/>
<path d="M32.5725 21.0867C32.1783 19.0975 30.7025 18.2267 28.6492 18.2267H20.6008C18.1808 18.2267 16.5675 19.4367 16.5675 22.26V26.9808C16.5675 29.0158 17.4017 30.2075 18.7767 30.7208C18.9783 30.7942 19.1983 30.8583 19.4275 30.895C19.7942 30.9775 20.1883 31.0142 20.6008 31.0142H28.6583C31.0783 31.0142 32.6917 29.8042 32.6917 26.9808V22.26C32.6917 21.8292 32.655 21.4442 32.5725 21.0867ZM20.0692 26C20.0692 26.3758 19.7575 26.6875 19.3817 26.6875C19.0058 26.6875 18.6942 26.3758 18.6942 26V23.25C18.6942 22.8742 19.0058 22.5625 19.3817 22.5625C19.7575 22.5625 20.0692 22.8742 20.0692 23.25V26ZM24.625 27.045C23.2867 27.045 22.205 25.9633 22.205 24.625C22.205 23.2867 23.2867 22.205 24.625 22.205C25.9633 22.205 27.045 23.2867 27.045 24.625C27.045 25.9633 25.9633 27.045 24.625 27.045ZM30.5467 26C30.5467 26.3758 30.235 26.6875 29.8592 26.6875C29.4833 26.6875 29.1717 26.3758 29.1717 26V23.25C29.1717 22.8742 29.4833 22.5625 29.8592 22.5625C30.235 22.5625 30.5467 22.8742 30.5467 23.25V26Z" fill="#F0914D"/>
<path d="M35.4417 25.01V29.7308C35.4417 32.5542 33.8283 33.7733 31.3992 33.7733H23.3508C22.6633 33.7733 22.0492 33.6725 21.5175 33.4708C21.0867 33.315 20.7108 33.0858 20.4083 32.7925C20.2433 32.6367 20.3717 32.3892 20.6008 32.3892H28.6492C32.0408 32.3892 34.0575 30.3725 34.0575 26.99V22.26C34.0575 22.04 34.305 21.9025 34.4608 22.0675C35.0842 22.7275 35.4417 23.69 35.4417 25.01Z" fill="#F0914D"/>
</svg>
