<svg width="51" height="51" viewBox="0 0 51 51" fill="none" xmlns="http://www.w3.org/2000/svg">
<circle cx="25.5" cy="25.5" r="25.5" fill="#4DA7EE" fill-opacity="0.25"/>
<path d="M25.2993 16.4889L23.1171 21.5687H20.9348C20.5727 21.5687 20.2195 21.5959 19.8754 21.6683L20.7809 19.4952L20.8171 19.4137L20.8715 19.2688C20.8986 19.2054 20.9167 19.1511 20.9439 19.1058C21.9943 16.67 23.1714 15.9094 25.2993 16.4889Z" fill="#4DA7EE"/>
<path d="M31.4476 21.8132L31.4295 21.8042C30.8862 21.6502 30.3338 21.5687 29.7724 21.5687H24.1041L26.1414 16.833L26.1686 16.7697C26.2953 16.8149 26.4312 16.8783 26.567 16.9236L28.5681 17.7657C29.6819 18.2275 30.4606 18.7074 30.9405 19.2869C31.022 19.3956 31.0944 19.4952 31.1669 19.6129C31.2484 19.7397 31.3117 19.8664 31.348 20.0022C31.3842 20.0837 31.4114 20.1562 31.4295 20.2377C31.5653 20.6995 31.5743 21.2247 31.4476 21.8132Z" fill="#4DA7EE"/>
<path d="M31.0492 23.1081C30.6417 22.9903 30.2161 22.927 29.7724 22.927H20.9349C20.3191 22.927 19.7396 23.0447 19.1963 23.2801C17.6208 23.9592 16.5161 25.5257 16.5161 27.3457V29.1114C16.5161 29.3288 16.5342 29.537 16.5614 29.7543C16.7606 32.6338 18.2999 34.1731 21.1793 34.3633C21.3876 34.3904 21.5959 34.4085 21.8222 34.4085H28.885C32.2354 34.4085 34.0011 32.8149 34.1731 29.6457C34.1821 29.4736 34.1912 29.2925 34.1912 29.1114V27.3457C34.1912 25.3446 32.8601 23.6604 31.0492 23.1081ZM27.6174 29.6547H23.0899C22.7187 29.6547 22.4108 29.3469 22.4108 28.9756C22.4108 28.6044 22.7187 28.2965 23.0899 28.2965H27.6174C27.9886 28.2965 28.2965 28.6044 28.2965 28.9756C28.2965 29.3469 27.9886 29.6547 27.6174 29.6547Z" fill="#4DA7EE"/>
</svg>
