<svg width="22" height="22" viewBox="0 0 22 22" fill="none" xmlns="http://www.w3.org/2000/svg">
<path d="M11 20.7442C10.3858 20.7442 9.7625 20.6067 9.27666 20.3226L4.235 17.4167C2.18166 16.0326 2.05333 15.8217 2.05333 13.6492V8.3509C2.05333 6.1784 2.1725 5.96757 4.18916 4.60173L9.2675 1.6684C10.23 1.10923 11.7425 1.10923 12.705 1.6684L17.765 4.5834C19.8183 5.96757 19.9467 6.1784 19.9467 8.3509V13.6401C19.9467 15.8126 19.8275 16.0234 17.8108 17.3892L12.7325 20.3226C12.2375 20.6067 11.6142 20.7442 11 20.7442ZM11 2.6309C10.615 2.6309 10.2392 2.70423 9.97333 2.86006L4.93166 5.77506C3.4375 6.7834 3.4375 6.7834 3.4375 8.3509V13.6401C3.4375 15.2076 3.4375 15.2076 4.96833 16.2434L9.97333 19.1309C10.5142 19.4426 11.495 19.4426 12.0358 19.1309L17.0775 16.2159C18.5625 15.2076 18.5625 15.2076 18.5625 13.6401V8.3509C18.5625 6.7834 18.5625 6.7834 17.0317 5.74756L12.0267 2.86006C11.7608 2.70423 11.385 2.6309 11 2.6309Z" fill="#292D32"/>
<path d="M11 14.4375C9.1025 14.4375 7.5625 12.8975 7.5625 11C7.5625 9.1025 9.1025 7.5625 11 7.5625C12.8975 7.5625 14.4375 9.1025 14.4375 11C14.4375 12.8975 12.8975 14.4375 11 14.4375ZM11 8.9375C9.86333 8.9375 8.9375 9.86333 8.9375 11C8.9375 12.1367 9.86333 13.0625 11 13.0625C12.1367 13.0625 13.0625 12.1367 13.0625 11C13.0625 9.86333 12.1367 8.9375 11 8.9375Z" fill="#292D32"/>
</svg>
