<svg width="33" height="28" viewBox="0 0 33 28" fill="none" xmlns="http://www.w3.org/2000/svg">
<path fill-rule="evenodd" clip-rule="evenodd" d="M5.89745 0.13752L0.0241465 12.4652C0.00179686 12.5111 -0.00528559 12.5629 0.00393486 12.613C0.0131553 12.6632 0.0381949 12.7091 0.075392 12.744L15.9378 27.9327C15.9828 27.9759 16.0428 28 16.1053 28C16.1677 28 16.2277 27.9759 16.2728 27.9327L32.1351 12.745C32.1723 12.7101 32.1974 12.6642 32.2066 12.614C32.2158 12.5638 32.2087 12.512 32.1864 12.4662L26.3131 0.138468C26.2941 0.0970664 26.2636 0.0619939 26.2253 0.0374423C26.1869 0.0128907 26.1423 -0.00010156 26.0967 1.83516e-05H6.11572C6.06994 -0.000550774 6.02497 0.0121285 5.98624 0.0365266C5.94751 0.0609248 5.91667 0.0959995 5.89745 0.13752Z" fill="#50AF95"/>
<path fill-rule="evenodd" clip-rule="evenodd" d="M18.3242 14.2705C18.1979 14.28 17.5453 14.3189 16.0895 14.3189C14.9316 14.3189 14.1095 14.2842 13.821 14.2705C9.34631 14.0737 6.0063 13.2947 6.0063 12.3621C6.0063 11.4295 9.34631 10.6516 13.821 10.4516V13.4947C14.1137 13.5158 14.9516 13.5653 16.1095 13.5653C17.4989 13.5653 18.1947 13.5074 18.32 13.4958V10.4537C22.7853 10.6526 26.1179 11.4316 26.1179 12.3621C26.1179 13.2926 22.7863 14.0716 18.32 14.2695L18.3242 14.2705ZM18.3242 10.1389V7.41579H24.5558V3.26315H7.58946V7.41579H13.82V10.1379C8.75578 10.3705 4.94736 11.3737 4.94736 12.5758C4.94736 13.7779 8.75578 14.78 13.82 15.0137V23.74H18.3231V15.0105C23.3758 14.7779 27.1779 13.7758 27.1779 12.5747C27.1779 11.3737 23.3789 10.3716 18.3231 10.1379L18.3242 10.1389Z" fill="white"/>
</svg>
