<svg width="28" height="28" viewBox="0 0 28 28" fill="none" xmlns="http://www.w3.org/2000/svg">
<path d="M14 28C21.7584 28 28 21.7584 28 14C28 6.24162 21.7584 0 14 0C6.24162 0 0 6.24162 0 14C0 21.7584 6.24162 28 14 28Z" fill="#2775CA"/>
<path d="M17.85 16.2166C17.85 14.175 16.625 13.475 14.175 13.1834C12.425 12.95 12.075 12.4834 12.075 11.6666C12.075 10.8498 12.6584 10.325 13.825 10.325C14.875 10.325 15.4584 10.675 15.75 11.55C15.8084 11.725 15.9834 11.8416 16.1584 11.8416H17.0916C17.325 11.8416 17.5 11.6666 17.5 11.4334V11.375C17.2666 10.0916 16.2166 9.09999 14.875 8.98337V7.58337C14.875 7.34999 14.7 7.17499 14.4084 7.11661H13.5334C13.3 7.11661 13.125 7.29161 13.0666 7.58337V8.92499C11.3166 9.15837 10.2084 10.325 10.2084 11.7834C10.2084 13.7084 11.375 14.4666 13.825 14.7584C15.4584 15.05 15.9834 15.4 15.9834 16.3334C15.9834 17.2668 15.1666 17.9084 14.0584 17.9084C12.5416 17.9084 12.0166 17.2666 11.8416 16.3916C11.7834 16.1584 11.6084 16.0416 11.4334 16.0416H10.4416C10.2084 16.0416 10.0334 16.2166 10.0334 16.45V16.5084C10.2666 17.9666 11.2 19.0166 13.125 19.3084V20.7084C13.125 20.9416 13.3 21.1166 13.5916 21.175H14.4666C14.7 21.175 14.875 21 14.9334 20.7084V19.3084C16.6834 19.0166 17.85 17.7916 17.85 16.2166Z" fill="white"/>
<path d="M11.025 22.3416C6.47501 20.7084 4.14163 15.6334 5.83339 11.1416C6.70839 8.69162 8.63339 6.825 11.025 5.95C11.2584 5.83338 11.375 5.65838 11.375 5.36662V4.54999C11.375 4.31661 11.2584 4.14161 11.025 4.08337C10.9666 4.08337 10.85 4.08337 10.7916 4.14161C5.25001 5.89162 2.21663 11.7834 3.96663 17.325C5.01663 20.5916 7.52501 23.1 10.7916 24.15C11.025 24.2666 11.2584 24.15 11.3166 23.9166C11.375 23.8584 11.375 23.8 11.375 23.6834V22.8666C11.375 22.6916 11.2 22.4584 11.025 22.3416ZM17.2084 4.14161C16.975 4.02499 16.7416 4.14161 16.6834 4.37499C16.625 4.43337 16.625 4.49161 16.625 4.60837V5.425C16.625 5.65838 16.8 5.89162 16.975 6.00838C21.525 7.64162 23.8584 12.7166 22.1666 17.2084C21.2916 19.6584 19.3666 21.525 16.975 22.4C16.7416 22.5166 16.625 22.6916 16.625 22.9834V23.8C16.625 24.0334 16.7416 24.2084 16.975 24.2666C17.0334 24.2666 17.15 24.2666 17.2084 24.2084C22.75 22.4584 25.7834 16.5666 24.0334 11.025C22.9834 7.7 20.4166 5.19162 17.2084 4.14161Z" fill="white"/>
</svg>
