<svg width="50" height="50" viewBox="0 0 50 50" fill="none" xmlns="http://www.w3.org/2000/svg">
<circle cx="25" cy="25" r="25" fill="#DDDDDD" fill-opacity="0.6"/>
<path d="M25 27.4525C22.0942 27.4525 19.7292 25.1538 19.7292 22.3295C19.7292 19.5051 22.0942 17.2065 25 17.2065C27.9058 17.2065 30.2708 19.5051 30.2708 22.3295C30.2708 25.1538 27.9058 27.4525 25 27.4525ZM25 18.5429C22.855 18.5429 21.1042 20.2446 21.1042 22.3295C21.1042 24.4143 22.855 26.116 25 26.116C27.145 26.116 28.8958 24.4143 28.8958 22.3295C28.8958 20.2446 27.145 18.5429 25 18.5429Z" fill="#12141F"/>
<path d="M32.8743 34.4991C32.4985 34.4991 32.1868 34.1962 32.1868 33.8309C32.1868 30.7571 28.9601 28.2624 25.0001 28.2624C21.0401 28.2624 17.8135 30.7571 17.8135 33.8309C17.8135 34.1962 17.5018 34.4991 17.126 34.4991C16.7501 34.4991 16.4385 34.1962 16.4385 33.8309C16.4385 30.0265 20.2793 26.926 25.0001 26.926C29.721 26.926 33.5618 30.0265 33.5618 33.8309C33.5618 34.1962 33.2501 34.4991 32.8743 34.4991Z" fill="#12141F"/>
</svg>
