<svg width="51" height="51" viewBox="0 0 51 51" fill="none" xmlns="http://www.w3.org/2000/svg">
<circle cx="25.5" cy="25.5" r="25.5" fill="#4B9D72" fill-opacity="0.25"/>
<path d="M31.3622 22.7057L23.6112 18.8302C18.4047 16.2224 16.2677 18.3594 18.8755 23.5659L19.6633 25.1415C19.8897 25.6033 19.8897 26.1375 19.6633 26.5993L18.8755 28.1658C16.2677 33.3724 18.3956 35.5093 23.6112 32.9015L31.3622 29.026C34.8393 27.2875 34.8393 24.4443 31.3622 22.7057ZM28.4375 26.545H23.5478C23.1766 26.545 22.8687 26.2371 22.8687 25.8659C22.8687 25.4946 23.1766 25.1868 23.5478 25.1868H28.4375C28.8087 25.1868 29.1166 25.4946 29.1166 25.8659C29.1166 26.2371 28.8087 26.545 28.4375 26.545Z" fill="#4B9D72"/>
</svg>
